<?xml version="1.0" encoding="UTF-8" standalone="no"?>
<!-- Created with Inkscape (http://www.inkscape.org/) -->

<svg
   width="16.073967mm"
   height="16.073967mm"
   viewBox="0 0 16.073967 16.073967"
   version="1.1"
   id="svg5"
   inkscape:version="1.1.1 (3bf5ae0d25, 2021-09-20)"
   sodipodi:docname="o.svg"
   xmlns:inkscape="http://www.inkscape.org/namespaces/inkscape"
   xmlns:sodipodi="http://sodipodi.sourceforge.net/DTD/sodipodi-0.dtd"
   xmlns="http://www.w3.org/2000/svg"
   xmlns:svg="http://www.w3.org/2000/svg">
  <sodipodi:namedview
     id="namedview7"
     pagecolor="#333333"
     bordercolor="#666666"
     borderopacity="1.0"
     inkscape:pageshadow="2"
     inkscape:pageopacity="0"
     inkscape:pagecheckerboard="0"
     inkscape:document-units="mm"
     showgrid="false"
     fit-margin-top="0"
     fit-margin-left="0"
     fit-margin-right="0"
     fit-margin-bottom="0"
     inkscape:showpageshadow="false"
     inkscape:zoom="11.103591"
     inkscape:cx="10.762284"
     inkscape:cy="19.81341"
     inkscape:window-width="2880"
     inkscape:window-height="1526"
     inkscape:window-x="2869"
     inkscape:window-y="4"
     inkscape:window-maximized="1"
     inkscape:current-layer="layer2" />
  <defs
     id="defs2" />
  <g
     inkscape:groupmode="layer"
     id="layer2"
     inkscape:label="Contents"
     transform="translate(-69.78735,-54.155758)">
    <path
       id="path6913"
       style="fill:#ffc600;fill-opacity:1;stroke-width:0"
       d="M 30.466797,0.08984375 A 30.376001,30.376001 0 0 0 0.08984375,30.466797 a 30.376001,30.376001 0 0 0 30.37695325,30.375 30.376001,30.376001 0 0 0 30.375,-30.375 30.376001,30.376001 0 0 0 -30.375,-30.37695325 z m 0,14.02929725 A 16.346063,16.346063 0 0 1 46.8125,30.466797 16.346063,16.346063 0 0 1 30.466797,46.8125 16.346063,16.346063 0 0 1 14.119141,30.466797 16.346063,16.346063 0 0 1 30.466797,14.119141 Z"
       transform="matrix(0.26458333,0,0,0.26458333,69.78735,54.155758)" />
  </g>
</svg>
