<?xml version="1.0" encoding="UTF-8" standalone="no"?>
<!-- Created with Inkscape (http://www.inkscape.org/) -->

<svg
   width="16.073967mm"
   height="16.073967mm"
   viewBox="0 0 16.073967 16.073967"
   version="1.1"
   id="svg5"
   inkscape:version="1.1.1 (3bf5ae0d25, 2021-09-20)"
   sodipodi:docname="o_gray.svg"
   xmlns:inkscape="http://www.inkscape.org/namespaces/inkscape"
   xmlns:sodipodi="http://sodipodi.sourceforge.net/DTD/sodipodi-0.dtd"
   xmlns="http://www.w3.org/2000/svg"
   xmlns:svg="http://www.w3.org/2000/svg">
  <sodipodi:namedview
     id="namedview7"
     pagecolor="#333333"
     bordercolor="#666666"
     borderopacity="1.0"
     inkscape:pageshadow="2"
     inkscape:pageopacity="0"
     inkscape:pagecheckerboard="0"
     inkscape:document-units="mm"
     showgrid="false"
     fit-margin-top="0"
     fit-margin-left="0"
     fit-margin-right="0"
     fit-margin-bottom="0"
     inkscape:showpageshadow="false"
     inkscape:zoom="11.103591"
     inkscape:cx="-3.4223163"
     inkscape:cy="19.81341"
     inkscape:window-width="2880"
     inkscape:window-height="1526"
     inkscape:window-x="2869"
     inkscape:window-y="4"
     inkscape:window-maximized="1"
     inkscape:current-layer="layer2" />
  <defs
     id="defs2" />
  <g
     inkscape:groupmode="layer"
     id="layer2"
     inkscape:label="Contents"
     transform="translate(-69.78735,-54.155758)">
    <path
       id="path6913"
       style="fill:#a8bec9;fill-opacity:1;stroke-width:0"
       d="m 77.824528,54.131872 a 8.0369835,8.0369835 0 0 0 -8.037235,8.037235 8.0369835,8.0369835 0 0 0 8.037235,8.036719 8.0369835,8.0369835 0 0 0 8.036719,-8.036719 8.0369835,8.0369835 0 0 0 -8.036719,-8.037235 z m 0,3.711918 a 4.3248958,4.3248958 0 0 1 4.324801,4.325317 4.3248958,4.3248958 0 0 1 -4.324801,4.324801 4.3248958,4.3248958 0 0 1 -4.325317,-4.324801 4.3248958,4.3248958 0 0 1 4.325317,-4.325317 z" />
  </g>
</svg>
