<?xml version="1.0" encoding="UTF-8" standalone="no"?>
<svg
   class="svg-icon"
   style="overflow:hidden;fill:currentColor"
   viewBox="0 0 910.07684 814.67267"
   version="1.1"
   id="svg843"
   sodipodi:docname="reset.svg"
   width="910.07684"
   height="814.67267"
   inkscape:version="1.1.1 (3bf5ae0d25, 2021-09-20)"
   xmlns:inkscape="http://www.inkscape.org/namespaces/inkscape"
   xmlns:sodipodi="http://sodipodi.sourceforge.net/DTD/sodipodi-0.dtd"
   xmlns="http://www.w3.org/2000/svg"
   xmlns:svg="http://www.w3.org/2000/svg">
  <defs
     id="defs847" />
  <sodipodi:namedview
     id="namedview845"
     pagecolor="#ffffff"
     bordercolor="#666666"
     borderopacity="1.0"
     inkscape:pageshadow="2"
     inkscape:pageopacity="0.0"
     inkscape:pagecheckerboard="0"
     showgrid="false"
     inkscape:zoom="1.057898"
     inkscape:cx="454.6752"
     inkscape:cy="264.67579"
     inkscape:window-width="2880"
     inkscape:window-height="1526"
     inkscape:window-x="2869"
     inkscape:window-y="4"
     inkscape:window-maximized="1"
     inkscape:current-layer="svg843" />
  <path
     d="m 119.52496,461.14783 52.69109,-8.713 a 276.24369,331.732 0 0 1 -2.29084,-59.893 l -53.13578,-2.835 a 329.64509,395.86 0 0 0 2.73553,71.441 z"
     fill=""
     id="path835"
     style="stroke:#1f3540;stroke-width:44.716;stroke-miterlimit:4;stroke-dasharray:none;stroke-opacity:1;fill:#1f3540;fill-opacity:1" />
  <path
     d="m 502.741,798.48683 c 52.791,0 104.019,-10.346 152.263,-30.752 46.581,-19.703 88.409,-47.902 124.321,-83.814 35.912,-35.912 64.111,-77.74 83.814,-124.322 20.405,-48.244 30.752,-99.471 30.752,-152.263 0,-52.791 -10.346,-104.019 -30.752,-152.263 -19.703,-46.581 -47.902,-88.409 -83.814,-124.321 -35.912,-35.912003 -77.74,-64.111003 -124.321,-83.814003 -48.244,-20.405 -99.472,-30.752 -152.263,-30.752 -101.406,0 -197.547,38.644 -270.712,108.813003 -72.938,69.952 -115.572,163.96 -120.047,264.706 l 63.809,2.837 c 7.783,-175.224 151.397,-312.483003 326.95,-312.483003 180.462,0 327.278,146.817003 327.278,327.278003 0,180.461 -146.816,327.279 -327.278,327.279 -69.625,0 -136.091,-21.563 -192.21,-62.357 l -37.555,51.663 c 67.106,48.781 146.558,74.565 229.765,74.565 z"
     fill=""
     id="path837"
     style="stroke:#1f3540;stroke-width:36.52913386;stroke-miterlimit:4;stroke-dasharray:none;stroke-opacity:1;fill:#1f3540;fill-opacity:1" />
  <path
     d="m 155.903,520.87083 c 8.173,0 16.346,-3.118 22.581,-9.354 l 117.233,-117.232 c 12.472,-12.471 12.472,-32.692 0,-45.164 -12.471,-12.472 -32.692,-12.472 -45.163,0 l -117.232,117.232 c -12.472,12.472 -12.472,32.693 0,45.164 6.236,6.236 14.409,9.354 22.581,9.354 z"
     fill=""
     id="path839"
     style="stroke:#1f3540;stroke-opacity:1;fill:#1f3540;fill-opacity:1" />
  <path
     d="m 149.168,522.93983 c 8.174,0 16.345,-3.117 22.581,-9.354 12.472,-12.471 12.472,-32.692 0,-45.164 L 54.517,351.18983 c -12.47,-12.471 -32.691,-12.471 -45.163,0 -12.472,12.472 -12.472,32.692 0,45.164 l 117.233,117.232 c 6.234,6.235 14.409,9.354 22.581,9.354 z"
     fill=""
     id="path841"
     style="stroke:#1f3540;stroke-opacity:1;fill:#1f3540;fill-opacity:1" />
</svg>
